<?xml version="1.0" encoding="UTF-8"?>
<svg width="256" height="256" viewBox="0 0 256 256" xmlns="http://www.w3.org/2000/svg">
  <defs>
    <!-- Solid gradient for better ICO rendering -->
    <linearGradient id="winGradient" x1="0%" y1="0%" x2="100%" y2="100%">
      <stop offset="0%" style="stop-color:#EC4899;stop-opacity:1" />
      <stop offset="50%" style="stop-color:#F472B6;stop-opacity:1" />
      <stop offset="100%" style="stop-color:#06B6D4;stop-opacity:1" />
    </linearGradient>
  </defs>
  
  <!-- Solid background for clarity -->
  <rect width="256" height="256" rx="32" fill="#1E293B"/>
  
  <g transform="translate(128, 128)">
    <!-- Simplified RW - thicker and clearer -->
    <g opacity="0.3">
      <!-- R -->
      <path d="M -50 -60 L -50 60 M -50 -60 L -10 -60 Q 20 -60 20 -30 Q 20 0 -10 0 L -50 0 M -20 0 L 20 60" 
            stroke="#EC4899" 
            stroke-width="12" 
            stroke-linecap="round" 
            stroke-linejoin="round" 
            fill="none"/>
      
      <!-- W -->
      <path d="M 30 -60 L 45 60 M 45 60 L 60 -20 M 60 -20 L 75 60 M 75 60 L 90 -60" 
            stroke="#EC4899" 
            stroke-width="12" 
            stroke-linecap="round" 
            stroke-linejoin="round" 
            fill="none"/>
    </g>
    
    <!-- Bold hexagon outline -->
    <polygon points="0,-70 60,-35 60,35 0,70 -60,35 -60,-35" 
             fill="none" 
             stroke="url(#winGradient)" 
             stroke-width="8"/>
    
    <!-- Large, bold terminal prompt -->
    <g>
      <path d="M -40 -30 L -15 0 L -40 30" 
            stroke="#FFFFFF" 
            stroke-width="10" 
            stroke-linecap="round" 
            stroke-linejoin="round" 
            fill="none"/>
      <line x1="-5" y1="0" x2="40" y2="0" 
            stroke="#FFFFFF" 
            stroke-width="10" 
            stroke-linecap="round"/>
    </g>
  </g>
</svg>
