<?xml version="1.0" encoding="UTF-8"?>
<svg width="1024" height="1024" viewBox="0 0 1024 1024" xmlns="http://www.w3.org/2000/svg">
  <defs>
    <!-- Gradient -->
    <linearGradient id="grad3" x1="0%" y1="0%" x2="100%" y2="100%">
      <stop offset="0%" style="stop-color:#6366F1;stop-opacity:1" />
      <stop offset="50%" style="stop-color:#8B5CF6;stop-opacity:1" />
      <stop offset="100%" style="stop-color:#EC4899;stop-opacity:1" />
    </linearGradient>
    
    <!-- Inner shadow -->
    <filter id="innerShadow">
      <feOffset dx="0" dy="2"/>
      <feGaussianBlur stdDeviation="3" result="offset-blur"/>
      <feComposite operator="out" in="SourceGraphic" in2="offset-blur" result="inverse"/>
      <feFlood flood-color="#000000" flood-opacity="0.2" result="color"/>
      <feComposite operator="in" in="color" in2="inverse" result="shadow"/>
      <feComposite operator="over" in="shadow" in2="SourceGraphic"/>
    </filter>
  </defs>
  
  <!-- Background rounded rectangle -->
  <rect x="112" y="112" width="800" height="800" rx="160" ry="160" fill="#1E293B"/>
  
  <!-- Letter design -->
  <g transform="translate(512, 512)">
    <!-- R letter -->
    <g transform="translate(-180, 0)">
      <path d="M -80 -200 L -80 200 M -80 -200 L 40 -200 Q 120 -200 120 -120 Q 120 -40 40 -40 L -80 -40 M 0 -40 L 120 200" 
            stroke="url(#grad3)" 
            stroke-width="48" 
            stroke-linecap="round" 
            stroke-linejoin="round" 
            fill="none"
            filter="url(#innerShadow)"/>
    </g>
    
    <!-- W letter -->
    <g transform="translate(60, 0)">
      <path d="M -120 -200 L -60 200 M -60 200 L 0 -100 M 0 -100 L 60 200 M 60 200 L 120 -200" 
            stroke="url(#grad3)" 
            stroke-width="48" 
            stroke-linecap="round" 
            stroke-linejoin="round" 
            fill="none"
            filter="url(#innerShadow)"/>
    </g>
    
    <!-- Speed lines -->
    <g opacity="0.3">
      <rect x="-400" y="-150" width="200" height="8" rx="4" fill="url(#grad3)"/>
      <rect x="-400" y="0" width="150" height="8" rx="4" fill="url(#grad3)"/>
      <rect x="-400" y="150" width="100" height="8" rx="4" fill="url(#grad3)"/>
    </g>
  </g>
  
  <!-- Corner accent -->
  <circle cx="832" cy="832" r="60" fill="url(#grad3)" opacity="0.8"/>
</svg>
